<svg width="28" height="28" viewBox="0 0 28 28" fill="none" xmlns="http://www.w3.org/2000/svg">
<rect width="28" height="28" rx="14" fill="white" fill-opacity="0.8"/>
<g clip-path="url(#clip0_10976_43296)">
<path d="M20.6468 9.14208C19.7649 8.26889 18.572 7.78221 17.3309 7.78916C16.0899 7.79612 14.9025 8.29607 14.0305 9.17919C13.1697 8.27105 11.9797 7.7479 10.7286 7.72767C9.47773 7.70729 8.27125 8.19166 7.38147 9.07134C6.49187 9.95115 5.99391 11.152 6.00006 12.4032C6.00619 13.6543 6.51591 14.8503 7.4143 15.7212L13.6373 21.9404C13.7412 22.0456 13.8828 22.1047 14.0306 22.1047C14.1784 22.1047 14.32 22.0456 14.4239 21.9404L20.6469 15.7212C21.5137 14.8457 22 13.6635 22 12.4315C22 11.1997 21.5136 10.0176 20.6469 9.14208H20.6468Z" fill="#333333"/>
</g>
<rect x="0.5" y="0.5" width="27" height="27" rx="13.5" stroke="#ECECEC" stroke-opacity="0.5"/>
<defs>
<clipPath id="clip0_10976_43296">
<rect width="16" height="16" fill="white" transform="translate(6 7)"/>
</clipPath>
</defs>
</svg>
