<svg width="28" height="28" viewBox="0 0 28 28" fill="none" xmlns="http://www.w3.org/2000/svg">
<rect width="28" height="28" rx="14" fill="white" fill-opacity="0.7"/>
<path d="M13.3934 7.25V8.63655C13.1431 8.72941 12.9209 8.88494 12.7479 9.08825C12.5749 9.29157 12.457 9.53588 12.4055 9.79779L9.0084 10.2831L8.92174 10.3178H8.90441L8.83508 10.3524C8.83049 10.3524 8.82608 10.3542 8.82283 10.3575C8.81958 10.3607 8.81775 10.3652 8.81775 10.3697L8.74842 10.4217H8.73109L8.6791 10.4911C8.67682 10.4911 8.67457 10.4915 8.67246 10.4924C8.67036 10.4933 8.66845 10.4945 8.66684 10.4961C8.66523 10.4978 8.66396 10.4997 8.66308 10.5018C8.66221 10.5039 8.66177 10.5061 8.66177 10.5084L8.6271 10.5604C8.6271 10.5777 8.6271 10.5777 8.60977 10.5777L5.78466 16.9386C5.76469 17.0062 5.75305 17.0761 5.75 17.1465C5.75 18.0337 6.10243 18.8845 6.72975 19.5119C7.35707 20.1392 8.2079 20.4916 9.09506 20.4916C9.98223 20.4916 10.8331 20.1392 11.4604 19.5119C12.0877 18.8845 12.4401 18.0337 12.4401 17.1465C12.4391 17.0741 12.4213 17.0029 12.3881 16.9386L9.84034 11.219L12.0068 10.907L12.5615 10.8204C12.6919 11.0646 12.887 11.2681 13.1255 11.4088C13.364 11.5494 13.6365 11.6217 13.9133 11.6176C14.2654 11.6179 14.6069 11.4976 14.8812 11.2769C15.1555 11.0562 15.3461 10.7484 15.4212 10.4044L18.0557 10.0231L15.6119 15.5C15.5766 15.5698 15.5588 15.6471 15.5599 15.7253C15.5599 16.6125 15.9123 17.4633 16.5396 18.0906C17.1669 18.718 18.0178 19.0704 18.9049 19.0704C19.7921 19.0704 20.6429 18.718 21.2703 18.0906C21.8976 17.4633 22.25 16.6125 22.25 15.7253C22.2482 15.649 22.2366 15.5733 22.2153 15.5L19.3902 9.15651C19.3492 9.07095 19.2855 8.99826 19.206 8.94632C19.1266 8.89438 19.0345 8.86518 18.9396 8.86187H18.8356L15.2826 9.38183C15.0974 9.04005 14.7962 8.77572 14.4333 8.63655V7.25H13.3934ZM9.09506 12.0856L11.1056 16.6266H7.06723L9.09506 12.0856ZM9.09506 19.4517C8.57362 19.4503 8.06782 19.2734 7.6591 18.9496C7.25039 18.6257 6.96254 18.1738 6.84191 17.6665H11.3309C11.2138 18.1724 10.9292 18.6239 10.5234 18.9479C10.1177 19.2719 9.61434 19.4494 9.09506 19.4517ZM13.9133 10.5777C13.8482 10.5801 13.7832 10.5692 13.7223 10.5459C13.6614 10.5225 13.6058 10.4872 13.5589 10.4419C13.512 10.3966 13.4747 10.3423 13.4492 10.2822C13.4238 10.2222 13.4107 10.1577 13.4107 10.0924C13.4107 9.95913 13.4637 9.83129 13.5579 9.73703C13.6522 9.64277 13.78 9.58981 13.9133 9.58981C14.0466 9.58981 14.1745 9.64277 14.2688 9.73703C14.363 9.83129 14.416 9.95913 14.416 10.0924C14.416 10.1577 14.4029 10.2222 14.3774 10.2822C14.352 10.3423 14.3147 10.3966 14.2678 10.4419C14.2208 10.4872 14.1653 10.5225 14.1044 10.5459C14.0435 10.5692 13.9785 10.5801 13.9133 10.5777ZM20.9328 15.2054H16.8944L18.9049 10.6471L20.9328 15.2054ZM18.9049 18.0305C18.3857 18.0282 17.8824 17.8507 17.4766 17.5267C17.0708 17.2027 16.7862 16.7512 16.6691 16.2453H21.1581C21.0375 16.7526 20.7496 17.2045 20.3409 17.5284C19.9322 17.8522 19.4264 18.029 18.9049 18.0305Z" fill="#333333"/>
<rect x="0.5" y="0.5" width="27" height="27" rx="13.5" stroke="#ECECEC" stroke-opacity="0.5"/>
</svg>
