<svg width="64" height="64" viewBox="0 0 64 64" fill="none" xmlns="http://www.w3.org/2000/svg">
<path d="M61.0883 13.1561C60.8439 12.9117 60.5993 12.6672 60.1105 12.6672H13.666L12.4438 6.31172C12.4438 5.8228 11.7104 5.33398 11.2215 5.33398H3.88816C3.15494 5.33387 2.66602 5.8228 2.66602 6.55613C2.66602 7.28946 3.15494 7.77839 3.88828 7.77839H10.2439L16.1105 37.6007C16.8439 41.5117 20.5105 44.4451 24.4216 44.4451H52.5327C53.266 44.4451 53.7549 43.9561 53.7549 43.2228C53.7549 42.4895 53.266 42.0005 52.5327 42.0005H24.666C22.7104 42.0005 20.7549 41.0228 19.7771 39.3116L55.466 34.4228C55.9549 34.4228 56.4438 33.9339 56.4438 33.4451L61.3327 13.8895C61.3327 13.8895 61.3327 13.4005 61.0883 13.1561ZM54.2438 32.2228L18.5548 36.8672L14.1548 14.8672H58.3993L54.2438 32.2228Z" fill="#BABAC0"/>
<path d="M23.4431 46.8887C20.021 46.8887 17.332 49.5776 17.332 52.9997C17.332 56.422 20.021 59.1108 23.4431 59.1108C26.8654 59.1108 29.5542 56.4219 29.5542 52.9997C29.5543 49.5776 26.8654 46.8887 23.4431 46.8887ZM23.4431 56.6664C21.4875 56.6664 19.7764 54.9552 19.7764 52.9997C19.7764 51.0443 21.4875 49.3331 23.4431 49.3331C25.3987 49.3331 27.1098 51.0443 27.1098 52.9997C27.1098 54.9552 25.3987 56.6664 23.4431 56.6664Z" fill="#FBC100"/>
<path d="M49.3326 48C45.5993 48 42.666 50.9334 42.666 54.6666C42.666 58.4 45.5994 61.3332 49.3326 61.3332C53.066 61.3332 55.9993 58.3999 55.9993 54.6666C55.9993 50.9334 53.0659 48 49.3326 48ZM49.3326 58.6666C47.1993 58.6666 45.3326 56.7999 45.3326 54.6666C45.3326 52.5334 47.1993 50.6666 49.3326 50.6666C51.466 50.6666 53.3326 52.5334 53.3326 54.6666C53.3326 56.7999 51.4659 58.6666 49.3326 58.6666Z" fill="#FBC100"/>
</svg>
