<svg width="20" height="20" viewBox="0 0 20 20" fill="none" xmlns="http://www.w3.org/2000/svg">
<path d="M10.0007 17.8935C9.8669 17.8933 9.7359 17.8556 9.62248 17.7847C9.3761 17.6271 3.55176 13.8827 1.40595 9.53948C0.981816 8.67472 0.787982 7.71515 0.843188 6.75355C0.898395 5.79196 1.20077 4.86088 1.72109 4.05033C2.19916 3.29408 2.86707 2.67631 3.65827 2.2586C4.44946 1.84088 5.33631 1.6378 6.23044 1.6696C6.94341 1.69459 7.6442 1.8618 8.29165 2.16142C8.93909 2.46103 9.52014 2.88701 10.0007 3.41432C10.481 2.88676 11.062 2.46061 11.7094 2.16098C12.3569 1.86134 13.0578 1.69427 13.7709 1.6696C14.6653 1.63606 15.5528 1.83838 16.3443 2.25626C17.1358 2.67414 17.8034 3.29286 18.2802 4.05033C18.8005 4.86088 19.1029 5.79196 19.1581 6.75355C19.2133 7.71515 19.0195 8.67472 18.5954 9.53948C16.4495 13.8827 10.6281 17.6271 10.3788 17.7847C10.2654 17.8556 10.1344 17.8933 10.0007 17.8935ZM6.03563 3.07627C5.40963 3.07437 4.79354 3.23263 4.24596 3.53601C3.69838 3.83938 3.2375 4.27779 2.90716 4.80953C2.51672 5.41633 2.28991 6.11381 2.24874 6.83419C2.20758 7.55456 2.35347 8.27334 2.67223 8.92066C4.34247 12.2984 8.68853 15.444 10.0007 16.3408C11.3128 15.444 15.6588 12.2984 17.3291 8.92066C17.6468 8.27407 17.7921 7.55636 17.7509 6.8371C17.7098 6.11784 17.4835 5.4214 17.0941 4.81526C16.7496 4.26494 16.2652 3.81588 15.6905 3.51389C15.1157 3.21191 14.4711 3.06782 13.8224 3.09632C13.173 3.12016 12.5395 3.30325 11.9774 3.62947C11.4154 3.95569 10.9422 4.41504 10.5994 4.9671C10.5362 5.06896 10.448 5.153 10.3432 5.21128C10.2385 5.26956 10.1205 5.30015 10.0007 5.30015C9.88076 5.30015 9.76285 5.26956 9.65807 5.21128C9.5533 5.153 9.46512 5.06896 9.40189 4.9671C9.06111 4.41184 8.58877 3.94911 8.02663 3.61981C7.46448 3.29052 6.82986 3.10482 6.17887 3.07913L6.03563 3.07627Z" fill="#333333"/>
</svg>
